<svg width="288" height="27" viewBox="0 0 288 27" fill="none" xmlns="http://www.w3.org/2000/svg">
<path d="M5.3215 6.77875H1.4625V18.5938H5.3215C9.1125 18.5938 11.5945 16.3667 11.5945 12.7287C11.5945 9.07375 9.1125 6.77875 5.3215 6.77875ZM3.4005 17.0127V8.35975H5.3215C8.1095 8.35975 9.6055 10.0257 9.6055 12.7287C9.6055 15.4147 8.1095 17.0127 5.3215 17.0127H3.4005ZM12.8692 13.8677C12.8692 16.7577 14.8242 18.7468 17.2552 18.7468C18.8192 18.7468 19.9412 17.9987 20.5362 17.1997V18.5938H22.4912V9.22675H20.5362V10.5867C19.9582 9.82175 18.8702 9.07375 17.2892 9.07375C14.8242 9.07375 12.8692 10.9777 12.8692 13.8677ZM20.5362 13.9017C20.5362 15.9247 19.1592 17.0637 17.6972 17.0637C16.2522 17.0637 14.8582 15.8907 14.8582 13.8677C14.8582 11.8447 16.2522 10.7567 17.6972 10.7567C19.1592 10.7567 20.5362 11.8957 20.5362 13.9017ZM32.0237 15.9757C31.9217 12.5927 26.6347 13.6467 26.6347 11.7597C26.6347 11.1307 27.1787 10.7057 28.2157 10.7057C29.2697 10.7057 29.8987 11.2667 29.9667 12.0827H31.9047C31.8027 10.2127 30.4087 9.07375 28.2837 9.07375C26.0737 9.07375 24.6797 10.2807 24.6797 11.7767C24.6797 15.2107 30.1197 14.1567 30.1197 15.9927C30.1197 16.6387 29.5247 17.1147 28.4027 17.1147C27.3317 17.1147 26.6007 16.4857 26.5327 15.7207H24.5267C24.6117 17.4207 26.1927 18.7468 28.4367 18.7468C30.6467 18.7468 32.0237 17.5567 32.0237 15.9757ZM34.1178 18.5938H36.0558V13.3577C36.0558 11.6407 36.9908 10.7567 38.4188 10.7567C39.8298 10.7567 40.7648 11.6407 40.7648 13.3577V18.5938H42.6858V13.0687C42.6858 10.4507 41.0538 9.07375 38.9628 9.07375C37.7558 9.07375 36.7018 9.53275 36.0558 10.3147V6.01375H34.1178V18.5938ZM47.0958 10.6207V6.01375H45.1578V18.5938H47.0958V17.2337C47.7078 18.0497 48.8128 18.7468 50.3598 18.7468C52.8248 18.7468 54.7628 16.7577 54.7628 13.8677C54.7628 10.9777 52.8418 9.07375 50.3598 9.07375C48.8808 9.07375 47.7078 9.77075 47.0958 10.6207ZM52.7908 13.8677C52.7908 15.8907 51.3968 17.0637 49.9348 17.0637C48.4898 17.0637 47.0958 15.9247 47.0958 13.9017C47.0958 11.8957 48.4898 10.7567 49.9348 10.7567C51.3968 10.7567 52.7908 11.8447 52.7908 13.8677ZM65.6043 13.9017C65.6043 10.9607 63.4963 9.07375 60.8273 9.07375C58.1583 9.07375 56.0503 10.9607 56.0503 13.9017C56.0503 16.8427 58.0733 18.7468 60.7423 18.7468C63.4283 18.7468 65.6043 16.8427 65.6043 13.9017ZM58.0223 13.9017C58.0223 11.7767 59.3313 10.7567 60.7933 10.7567C62.2383 10.7567 63.6153 11.7767 63.6153 13.9017C63.6153 16.0267 62.1873 17.0637 60.7423 17.0637C59.2803 17.0637 58.0223 16.0267 58.0223 13.9017ZM66.8741 13.8677C66.8741 16.7577 68.8291 18.7468 71.2601 18.7468C72.8241 18.7468 73.9461 17.9987 74.5411 17.1997V18.5938H76.4961V9.22675H74.5411V10.5867C73.9631 9.82175 72.8751 9.07375 71.2941 9.07375C68.8291 9.07375 66.8741 10.9777 66.8741 13.8677ZM74.5411 13.9017C74.5411 15.9247 73.1641 17.0637 71.7021 17.0637C70.2571 17.0637 68.8631 15.8907 68.8631 13.8677C68.8631 11.8447 70.2571 10.7567 71.7021 10.7567C73.1641 10.7567 74.5411 11.8957 74.5411 13.9017ZM80.9796 13.6637C80.9796 11.6747 81.8636 11.0797 83.2916 11.0797H83.7846V9.07375C82.4586 9.07375 81.5236 9.65175 80.9796 10.5867V9.22675H79.0416V18.5938H80.9796V13.6637ZM84.92 13.8677C84.92 16.7577 86.875 18.7468 89.34 18.7468C90.87 18.7468 91.992 18.0328 92.587 17.1827V18.5938H94.542V6.01375H92.587V10.5357C91.873 9.65175 90.581 9.07375 89.357 9.07375C86.875 9.07375 84.92 10.9777 84.92 13.8677ZM92.587 13.9017C92.587 15.9247 91.21 17.0637 89.748 17.0637C88.303 17.0637 86.909 15.8907 86.909 13.8677C86.909 11.8447 88.303 10.7567 89.748 10.7567C91.21 10.7567 92.587 11.8957 92.587 13.9017Z" fill="white"/>
<g clip-path="url(#clip0_1_1415)">
<path d="M129.969 9.93752L136.344 4.97919L142.719 9.93752V17.7292C142.719 18.1049 142.569 18.4652 142.304 18.7309C142.038 18.9966 141.678 19.1458 141.302 19.1458H131.385C131.01 19.1458 130.649 18.9966 130.384 18.7309C130.118 18.4652 129.969 18.1049 129.969 17.7292V9.93752Z" stroke="#2C2C2C" stroke-linecap="round" stroke-linejoin="round"/>
<path d="M134.219 19.1458V12.0625H138.469V19.1458" stroke="#2C2C2C" stroke-linecap="round" stroke-linejoin="round"/>
</g>
<path d="M155.643 17.125H156.826V8.064H155.643V12.042H151.028V8.064H149.845V17.125H151.028V13.017H155.643V17.125ZM165.593 13.55C165.593 11.301 164.02 9.884 161.992 9.884C159.977 9.884 158.391 11.301 158.391 13.55C158.391 15.812 159.925 17.242 161.94 17.242C163.968 17.242 165.593 15.812 165.593 13.55ZM159.6 13.55C159.6 11.756 160.731 10.911 161.979 10.911C163.201 10.911 164.384 11.756 164.384 13.55C164.384 15.357 163.175 16.202 161.94 16.202C160.705 16.202 159.6 15.357 159.6 13.55ZM177.431 17.125H178.601V12.926C178.601 10.885 177.34 9.871 175.715 9.871C174.623 9.871 173.609 10.43 173.193 11.457C172.725 10.391 171.75 9.871 170.58 9.871C169.644 9.871 168.799 10.274 168.331 11.028V10.001H167.148V17.125H168.331V13.199C168.331 11.665 169.15 10.898 170.346 10.898C171.516 10.898 172.296 11.639 172.296 13.095V17.125H173.466V13.199C173.466 11.665 174.285 10.898 175.481 10.898C176.651 10.898 177.431 11.639 177.431 13.095V17.125ZM183.571 10.885C184.793 10.885 185.833 11.652 185.82 13.043H181.322C181.452 11.652 182.414 10.885 183.571 10.885ZM186.899 14.928H185.625C185.365 15.695 184.689 16.241 183.623 16.241C182.414 16.241 181.4 15.448 181.309 14.005H187.003C187.029 13.758 187.042 13.55 187.042 13.29C187.042 11.34 185.69 9.884 183.623 9.884C181.543 9.884 180.1 11.301 180.1 13.55C180.1 15.812 181.595 17.242 183.623 17.242C185.391 17.242 186.535 16.228 186.899 14.928Z" fill="white"/>
<path d="M199.887 19.8688H201.343L204.879 5.32175H203.41L199.887 19.8688Z" fill="#0D99FF"/>
<path d="M217.707 8.55875H214.756V17.5938H217.707C220.606 17.5938 222.504 15.8907 222.504 13.1087C222.504 10.3137 220.606 8.55875 217.707 8.55875ZM216.238 16.3847V9.76775H217.707C219.839 9.76775 220.983 11.0417 220.983 13.1087C220.983 15.1627 219.839 16.3847 217.707 16.3847H216.238ZM223.479 13.9797C223.479 16.1897 224.974 17.7108 226.833 17.7108C228.029 17.7108 228.887 17.1387 229.342 16.5277V17.5938H230.837V10.4308H229.342V11.4707C228.9 10.8857 228.068 10.3137 226.859 10.3137C224.974 10.3137 223.479 11.7697 223.479 13.9797ZM229.342 14.0057C229.342 15.5527 228.289 16.4237 227.171 16.4237C226.066 16.4237 225 15.5267 225 13.9797C225 12.4327 226.066 11.6007 227.171 11.6007C228.289 11.6007 229.342 12.4717 229.342 14.0057ZM238.127 15.5917C238.049 13.0047 234.006 13.8107 234.006 12.3677C234.006 11.8867 234.422 11.5617 235.215 11.5617C236.021 11.5617 236.502 11.9907 236.554 12.6147H238.036C237.958 11.1847 236.892 10.3137 235.267 10.3137C233.577 10.3137 232.511 11.2367 232.511 12.3807C232.511 15.0067 236.671 14.2007 236.671 15.6047C236.671 16.0987 236.216 16.4627 235.358 16.4627C234.539 16.4627 233.98 15.9817 233.928 15.3967H232.394C232.459 16.6967 233.668 17.7108 235.384 17.7108C237.074 17.7108 238.127 16.8007 238.127 15.5917ZM239.728 17.5938H241.21V13.5897C241.21 12.2767 241.925 11.6007 243.017 11.6007C244.096 11.6007 244.811 12.2767 244.811 13.5897V17.5938H246.28V13.3687C246.28 11.3667 245.032 10.3137 243.433 10.3137C242.51 10.3137 241.704 10.6647 241.21 11.2627V7.97375H239.728V17.5938ZM249.652 11.4967V7.97375H248.17V17.5938H249.652V16.5537C250.12 17.1777 250.965 17.7108 252.148 17.7108C254.033 17.7108 255.515 16.1897 255.515 13.9797C255.515 11.7697 254.046 10.3137 252.148 10.3137C251.017 10.3137 250.12 10.8467 249.652 11.4967ZM254.007 13.9797C254.007 15.5267 252.941 16.4237 251.823 16.4237C250.718 16.4237 249.652 15.5527 249.652 14.0057C249.652 12.4717 250.718 11.6007 251.823 11.6007C252.941 11.6007 254.007 12.4327 254.007 13.9797ZM263.806 14.0057C263.806 11.7567 262.194 10.3137 260.153 10.3137C258.112 10.3137 256.5 11.7567 256.5 14.0057C256.5 16.2547 258.047 17.7108 260.088 17.7108C262.142 17.7108 263.806 16.2547 263.806 14.0057ZM258.008 14.0057C258.008 12.3807 259.009 11.6007 260.127 11.6007C261.232 11.6007 262.285 12.3807 262.285 14.0057C262.285 15.6307 261.193 16.4237 260.088 16.4237C258.97 16.4237 258.008 15.6307 258.008 14.0057ZM264.777 13.9797C264.777 16.1897 266.272 17.7108 268.131 17.7108C269.327 17.7108 270.185 17.1387 270.64 16.5277V17.5938H272.135V10.4308H270.64V11.4707C270.198 10.8857 269.366 10.3137 268.157 10.3137C266.272 10.3137 264.777 11.7697 264.777 13.9797ZM270.64 14.0057C270.64 15.5527 269.587 16.4237 268.469 16.4237C267.364 16.4237 266.298 15.5267 266.298 13.9797C266.298 12.4327 267.364 11.6007 268.469 11.6007C269.587 11.6007 270.64 12.4717 270.64 14.0057ZM275.563 13.8237C275.563 12.3027 276.239 11.8477 277.331 11.8477H277.708V10.3137C276.694 10.3137 275.979 10.7557 275.563 11.4707V10.4308H274.081V17.5938H275.563V13.8237ZM278.577 13.9797C278.577 16.1897 280.072 17.7108 281.957 17.7108C283.127 17.7108 283.985 17.1648 284.44 16.5147V17.5938H285.935V7.97375H284.44V11.4317C283.894 10.7557 282.906 10.3137 281.97 10.3137C280.072 10.3137 278.577 11.7697 278.577 13.9797ZM284.44 14.0057C284.44 15.5527 283.387 16.4237 282.269 16.4237C281.164 16.4237 280.098 15.5267 280.098 13.9797C280.098 12.4327 281.164 11.6007 282.269 11.6007C283.387 11.6007 284.44 12.4717 284.44 14.0057Z" fill="#0D99FF"/>
<defs>
<clipPath id="clip0_1_1415">
<rect width="17" height="17" fill="white" transform="translate(127.844 3.5625)"/>
</clipPath>
</defs>
</svg>
