<svg width="282" height="41" viewBox="0 0 282 41" fill="none" xmlns="http://www.w3.org/2000/svg">
<g clip-path="url(#clip0_1_92)">
<mask id="mask0_1_92" style="mask-type:luminance" maskUnits="userSpaceOnUse" x="-4" y="-1" width="289" height="43">
<path d="M284.375 -0.1875H-3.625V41.8125H284.375V-0.1875Z" fill="white"/>
</mask>
<g mask="url(#mask0_1_92)">
<path d="M-0.625 40.8125V35.4792L27.575 8.8125L55.775 22.1458L83.975 15.4792L112.175 22.1458L140.375 16.8125L168.575 24.8125L196.775 18.1458L224.975 22.1458L253.175 15.4792L281.375 8.8125V40.8125" fill="url(#paint0_linear_1_92)"/>
</g>
<mask id="mask1_1_92" style="mask-type:luminance" maskUnits="userSpaceOnUse" x="-4" y="-1" width="289" height="43">
<path d="M284.375 -0.1875H-3.625V41.8125H284.375V-0.1875Z" fill="white"/>
</mask>
<g mask="url(#mask1_1_92)">
<path d="M-0.625 35.4792L27.575 8.8125L55.775 22.1458L83.975 15.4792L112.175 22.1458L140.375 16.8125L168.575 24.8125L196.775 18.1458L224.975 22.1458L253.175 15.4792L281.375 8.8125" stroke="#FF5E5E" stroke-width="2"/>
</g>
</g>
<defs>
<linearGradient id="paint0_linear_1_92" x1="-0.625" y1="8.8125" x2="-0.625" y2="40.8125" gradientUnits="userSpaceOnUse">
<stop stop-color="#FF5E5E" stop-opacity="0.5"/>
<stop offset="0.006" stop-color="#FF5E5E" stop-opacity="0.5"/>
<stop offset="1" stop-color="white" stop-opacity="0"/>
</linearGradient>
<clipPath id="clip0_1_92">
<rect width="281" height="40" fill="white" transform="translate(0.375 0.8125)"/>
</clipPath>
</defs>
</svg>
