<svg width="90" height="90" viewBox="0 0 90 90" fill="none" xmlns="http://www.w3.org/2000/svg">
<path d="M44.9375 1.88794C53.7754 1.88794 62.4014 4.59436 69.6553 9.6432C76.9092 14.692 82.443 21.8411 85.5124 30.1289L77.3974 33.1344C74.9419 26.5041 70.5148 20.7849 64.7117 16.7458C58.9086 12.7067 52.0079 10.5416 44.9375 10.5416V1.88794Z" fill="#3AC977" stroke="#444444" stroke-width="2"/>
<path d="M85.5124 30.1289C89.3661 40.5343 89.075 52.0225 84.6992 62.2193C80.3234 72.4161 72.1974 80.5421 62.0006 84.9179C51.8038 89.2937 40.3155 89.5849 29.9102 85.7311C19.5048 81.8774 10.9776 74.1734 6.091 64.2113L13.8603 60.4003C17.7696 68.37 24.5913 74.5332 32.9156 77.6162C41.2399 80.6991 50.4305 80.4662 58.588 76.9656C66.7454 73.465 73.2462 66.9642 76.7469 58.8067C80.2475 50.6492 80.4804 41.4587 77.3974 33.1344L85.5124 30.1289Z" fill="#0D99FF" stroke="#444444" stroke-width="2"/>
<path d="M6.09102 64.2113C2.85551 57.6153 1.35284 50.304 1.72464 42.9666C2.09643 35.6292 4.33043 28.5073 8.2161 22.2721C12.1018 16.0369 17.5111 10.8938 23.9344 7.3275C30.3576 3.76122 37.5831 1.88922 44.9299 1.88794L44.9314 10.5416C39.054 10.5426 33.2736 12.0402 28.135 14.8932C22.9964 17.7463 18.6689 21.8607 15.5604 26.8489C12.4518 31.8371 10.6646 37.5346 10.3672 43.4045C10.0698 49.2745 11.2719 55.1235 13.8603 60.4003L6.09102 64.2113Z" fill="black" stroke="#444444" stroke-width="2"/>
<path d="M29.5713 53.3955L30.6133 53.6587C30.3949 54.5145 30.001 55.168 29.4316 55.6191C28.8659 56.0667 28.173 56.2905 27.353 56.2905C26.5044 56.2905 25.8133 56.1187 25.2798 55.7749C24.7498 55.4276 24.3452 54.9263 24.0659 54.271C23.7902 53.6157 23.6523 52.9121 23.6523 52.1602C23.6523 51.3402 23.8081 50.6258 24.1196 50.0171C24.4347 49.4048 24.8805 48.9411 25.457 48.626C26.0371 48.3073 26.6745 48.1479 27.3691 48.1479C28.1569 48.1479 28.8193 48.3485 29.3564 48.7495C29.8936 49.1506 30.2677 49.7145 30.479 50.4414L29.4531 50.6831C29.2705 50.1102 29.0055 49.693 28.6582 49.4316C28.3109 49.1702 27.874 49.0396 27.3477 49.0396C26.7425 49.0396 26.2358 49.1846 25.8276 49.4746C25.423 49.7646 25.1383 50.1549 24.9736 50.6455C24.8089 51.1325 24.7266 51.6356 24.7266 52.1548C24.7266 52.8244 24.8232 53.4098 25.0166 53.9111C25.2135 54.4089 25.5179 54.7812 25.9297 55.0283C26.3415 55.2754 26.7873 55.3989 27.2671 55.3989C27.8507 55.3989 28.3449 55.2306 28.7495 54.894C29.1541 54.5575 29.4281 54.0579 29.5713 53.3955ZM31.4189 53.3042C31.4189 52.2479 31.7126 51.4655 32.2998 50.957C32.7904 50.5345 33.3883 50.3232 34.0938 50.3232C34.8779 50.3232 35.5189 50.5811 36.0166 51.0967C36.5143 51.6087 36.7632 52.3177 36.7632 53.2236C36.7632 53.9577 36.6522 54.536 36.4302 54.9585C36.2118 55.3774 35.8913 55.7033 35.4688 55.936C35.0498 56.1688 34.5915 56.2852 34.0938 56.2852C33.2952 56.2852 32.6489 56.0291 32.1548 55.5171C31.6642 55.005 31.4189 54.2674 31.4189 53.3042ZM32.4126 53.3042C32.4126 54.0347 32.5719 54.5825 32.8906 54.9478C33.2093 55.3094 33.6104 55.4902 34.0938 55.4902C34.5736 55.4902 34.9728 55.3076 35.2915 54.9424C35.6102 54.5771 35.7695 54.0203 35.7695 53.272C35.7695 52.5666 35.6084 52.033 35.2861 51.6714C34.9674 51.3062 34.57 51.1235 34.0938 51.1235C33.6104 51.1235 33.2093 51.3044 32.8906 51.666C32.5719 52.0277 32.4126 52.5737 32.4126 53.3042ZM37.9019 56.1562V50.4521H38.7666V51.2524C38.9456 50.9731 39.1838 50.7493 39.481 50.5811C39.7782 50.4092 40.1165 50.3232 40.4961 50.3232C40.9186 50.3232 41.2642 50.411 41.5327 50.5864C41.8049 50.7619 41.9964 51.0072 42.1074 51.3223C42.5586 50.6562 43.1458 50.3232 43.8691 50.3232C44.4349 50.3232 44.87 50.4808 45.1743 50.7959C45.4787 51.1074 45.6309 51.589 45.6309 52.2407V56.1562H44.6694V52.563C44.6694 52.1763 44.6372 51.8988 44.5728 51.7305C44.5119 51.5586 44.3991 51.4207 44.2344 51.3169C44.0697 51.2131 43.8763 51.1611 43.6543 51.1611C43.2533 51.1611 42.9202 51.2954 42.6553 51.564C42.3903 51.8289 42.2578 52.255 42.2578 52.8423V56.1562H41.291V52.4502C41.291 52.0205 41.2122 51.6982 41.0547 51.4834C40.8971 51.2686 40.6393 51.1611 40.2812 51.1611C40.0091 51.1611 39.7567 51.2327 39.5239 51.376C39.2948 51.5192 39.1283 51.7287 39.0244 52.0044C38.9206 52.2801 38.8687 52.6776 38.8687 53.1968V56.1562H37.9019ZM47.0649 58.3423V50.4521H47.9458V51.1934C48.1535 50.9033 48.388 50.6867 48.6494 50.5435C48.9108 50.3966 49.2277 50.3232 49.6001 50.3232C50.0871 50.3232 50.5168 50.4486 50.8892 50.6992C51.2616 50.9499 51.5426 51.3044 51.7324 51.7627C51.9222 52.2174 52.0171 52.717 52.0171 53.2612C52.0171 53.8449 51.9115 54.3713 51.7002 54.8403C51.4925 55.3058 51.1882 55.6639 50.7871 55.9146C50.3896 56.1616 49.9707 56.2852 49.5303 56.2852C49.208 56.2852 48.918 56.2171 48.6602 56.0811C48.4059 55.945 48.1965 55.7731 48.0317 55.5654V58.3423H47.0649ZM47.9404 53.3364C47.9404 54.0705 48.089 54.613 48.3862 54.9639C48.6834 55.3148 49.0433 55.4902 49.4658 55.4902C49.8955 55.4902 50.2625 55.3094 50.5669 54.9478C50.8748 54.5825 51.0288 54.0186 51.0288 53.2559C51.0288 52.529 50.8784 51.9847 50.5776 51.623C50.2804 51.2614 49.9242 51.0806 49.5088 51.0806C49.097 51.0806 48.7318 51.2739 48.4131 51.6606C48.098 52.0438 47.9404 52.6024 47.9404 53.3364ZM57.0928 54.3193L58.0918 54.4429C57.9342 55.0265 57.6424 55.4795 57.2163 55.8018C56.7902 56.124 56.2459 56.2852 55.5835 56.2852C54.7492 56.2852 54.0868 56.0291 53.5962 55.5171C53.1092 55.0015 52.8657 54.2799 52.8657 53.3525C52.8657 52.3929 53.1128 51.6481 53.6069 51.1182C54.1011 50.5882 54.742 50.3232 55.5298 50.3232C56.2925 50.3232 56.9155 50.5828 57.3989 51.1021C57.8823 51.6213 58.124 52.3517 58.124 53.2935C58.124 53.3507 58.1222 53.4367 58.1187 53.5513H53.8647C53.9006 54.1779 54.0778 54.6577 54.3965 54.9907C54.7152 55.3237 55.1126 55.4902 55.5889 55.4902C55.9434 55.4902 56.2459 55.3971 56.4966 55.2109C56.7472 55.0247 56.946 54.7275 57.0928 54.3193ZM53.9185 52.7563H57.1035C57.0605 52.2765 56.9388 51.9167 56.7383 51.6768C56.4303 51.3044 56.0311 51.1182 55.5405 51.1182C55.0965 51.1182 54.7223 51.2668 54.418 51.564C54.1172 51.8612 53.9507 52.2586 53.9185 52.7563ZM61.4219 55.2915L61.5615 56.1455C61.2894 56.2028 61.0459 56.2314 60.8311 56.2314C60.4801 56.2314 60.208 56.1759 60.0146 56.0649C59.8213 55.9539 59.6852 55.8089 59.6064 55.6299C59.5277 55.4473 59.4883 55.0659 59.4883 54.4858V51.2041H58.7793V50.4521H59.4883V49.0396L60.4497 48.4595V50.4521H61.4219V51.2041H60.4497V54.5396C60.4497 54.8153 60.4658 54.9925 60.498 55.0713C60.5339 55.1501 60.5894 55.2127 60.6646 55.2593C60.7433 55.3058 60.8543 55.3291 60.9976 55.3291C61.105 55.3291 61.2464 55.3166 61.4219 55.2915ZM66.2773 54.3193L67.2764 54.4429C67.1188 55.0265 66.827 55.4795 66.4009 55.8018C65.9748 56.124 65.4305 56.2852 64.7681 56.2852C63.9338 56.2852 63.2713 56.0291 62.7808 55.5171C62.2938 55.0015 62.0503 54.2799 62.0503 53.3525C62.0503 52.3929 62.2974 51.6481 62.7915 51.1182C63.2856 50.5882 63.9266 50.3232 64.7144 50.3232C65.4771 50.3232 66.1001 50.5828 66.5835 51.1021C67.0669 51.6213 67.3086 52.3517 67.3086 53.2935C67.3086 53.3507 67.3068 53.4367 67.3032 53.5513H63.0493C63.0851 54.1779 63.2624 54.6577 63.5811 54.9907C63.8997 55.3237 64.2972 55.4902 64.7734 55.4902C65.1279 55.4902 65.4305 55.3971 65.6812 55.2109C65.9318 55.0247 66.1305 54.7275 66.2773 54.3193ZM63.103 52.7563H66.2881C66.2451 52.2765 66.1234 51.9167 65.9229 51.6768C65.6149 51.3044 65.2157 51.1182 64.7251 51.1182C64.2811 51.1182 63.9069 51.2668 63.6025 51.564C63.3018 51.8612 63.1353 52.2586 63.103 52.7563Z" fill="#828690"/>
<path d="M29.5713 53.3955L29.6937 52.9107L29.192 52.784L29.0826 53.2898L29.5713 53.3955ZM30.6133 53.6587L31.0978 53.7823L31.2217 53.2967L30.7357 53.1739L30.6133 53.6587ZM29.4316 55.6191L29.7419 56.0113L29.7422 56.011L29.4316 55.6191ZM25.2798 55.7749L25.0057 56.1931L25.009 56.1952L25.2798 55.7749ZM24.0659 54.271L23.605 54.4649L23.606 54.467L24.0659 54.271ZM24.1196 50.0171L23.675 49.7883L23.6745 49.7893L24.1196 50.0171ZM25.457 48.626L25.6968 49.0647L25.6978 49.0642L25.457 48.626ZM30.479 50.4414L30.5937 50.9281L31.1061 50.8074L30.9591 50.3019L30.479 50.4414ZM29.4531 50.6831L28.9767 50.835L29.1173 51.2759L29.5678 51.1698L29.4531 50.6831ZM28.6582 49.4316L28.3575 49.8311L28.6582 49.4316ZM25.8276 49.4746L25.538 49.067L25.5363 49.0682L25.8276 49.4746ZM24.9736 50.6455L25.4473 50.8057L25.4476 50.8047L24.9736 50.6455ZM25.0166 53.9111L24.5501 54.0911L24.5517 54.0951L25.0166 53.9111ZM28.7495 54.894L29.0693 55.2784L28.7495 54.894ZM29.4488 53.8803L30.4908 54.1435L30.7357 53.1739L29.6937 52.9107L29.4488 53.8803ZM30.1288 53.535C29.9315 54.3083 29.5874 54.8577 29.1211 55.2273L29.7422 56.011C30.4145 55.4782 30.8583 54.7207 31.0978 53.7823L30.1288 53.535ZM29.1214 55.227C28.6559 55.5953 28.0766 55.7905 27.353 55.7905V56.7905C28.2694 56.7905 29.0759 56.5381 29.7419 56.0113L29.1214 55.227ZM27.353 55.7905C26.5689 55.7905 25.9804 55.6315 25.5506 55.3546L25.009 56.1952C25.6462 56.6058 26.4399 56.7905 27.353 56.7905V55.7905ZM25.5539 55.3567C25.1164 55.07 24.7715 54.6511 24.5259 54.0749L23.606 54.467C23.919 55.2014 24.3832 55.7851 25.0057 56.1931L25.5539 55.3567ZM24.5268 54.0771C24.2784 53.4867 24.1523 52.8494 24.1523 52.1602H23.1523C23.1523 52.9748 23.302 53.7448 23.6051 54.4649L24.5268 54.0771ZM24.1523 52.1602C24.1523 51.4037 24.2958 50.7704 24.5647 50.2449L23.6745 49.7893C23.3204 50.4813 23.1523 51.2766 23.1523 52.1602H24.1523ZM24.5642 50.2459C24.8359 49.7179 25.2124 49.3295 25.6968 49.0647L25.2172 48.1872C24.5487 48.5527 24.0336 49.0916 23.675 49.7883L24.5642 50.2459ZM25.6978 49.0642C26.2004 48.7881 26.7543 48.6479 27.3691 48.6479V47.6479C26.5946 47.6479 25.8738 47.8265 25.2163 48.1878L25.6978 49.0642ZM27.3691 48.6479C28.0686 48.6479 28.621 48.8244 29.0573 49.1502L29.6556 48.3489C29.0176 47.8725 28.2452 47.6479 27.3691 47.6479V48.6479ZM29.0573 49.1502C29.4962 49.4779 29.8138 49.9443 29.9989 50.581L30.9591 50.3019C30.7216 49.4847 30.2909 48.8232 29.6556 48.3489L29.0573 49.1502ZM30.3643 49.9547L29.3385 50.1964L29.5678 51.1698L30.5937 50.9281L30.3643 49.9547ZM29.9295 50.5313C29.7272 49.8964 29.4153 49.3757 28.9589 49.0321L28.3575 49.8311C28.5957 50.0104 28.8139 50.3239 28.9767 50.835L29.9295 50.5313ZM28.9589 49.0321C28.5078 48.6927 27.959 48.5396 27.3477 48.5396V49.5396C27.789 49.5396 28.1139 49.6478 28.3575 49.8311L28.9589 49.0321ZM27.3477 48.5396C26.6608 48.5396 26.0472 48.7052 25.538 49.067L26.1172 49.8822C26.4245 49.6639 26.8242 49.5396 27.3477 49.5396V48.5396ZM25.5363 49.0682C25.0428 49.422 24.6964 49.9004 24.4996 50.4864L25.4476 50.8047C25.5803 50.4095 25.8032 50.1073 26.1189 49.881L25.5363 49.0682ZM24.5 50.4853C24.3176 51.0244 24.2266 51.5817 24.2266 52.1548H25.2266C25.2266 51.6895 25.3002 51.2406 25.4473 50.8057L24.5 50.4853ZM24.2266 52.1548C24.2266 52.8713 24.3299 53.5202 24.5501 54.0911L25.4831 53.7312C25.3166 53.2995 25.2266 52.7774 25.2266 52.1548H24.2266ZM24.5517 54.0951C24.7842 54.6827 25.1556 55.147 25.6724 55.4571L26.1869 54.5996C25.8802 54.4155 25.6429 54.135 25.4815 53.7272L24.5517 54.0951ZM25.6724 55.4571C26.1619 55.7507 26.6966 55.8989 27.2671 55.8989V54.8989C26.878 54.8989 26.5211 54.8001 26.1869 54.5996L25.6724 55.4571ZM27.2671 55.8989C27.954 55.8989 28.5649 55.698 29.0693 55.2784L28.4298 54.5097C28.1249 54.7633 27.7475 54.8989 27.2671 54.8989V55.8989ZM29.0693 55.2784C29.5818 54.8521 29.9 54.241 30.06 53.5012L29.0826 53.2898C28.9561 53.8748 28.7265 54.2628 28.4298 54.5097L29.0693 55.2784ZM32.2998 50.957L31.9735 50.5782L31.9725 50.579L32.2998 50.957ZM36.0166 51.0967L35.6569 51.4439L35.6581 51.4452L36.0166 51.0967ZM36.4302 54.9585L35.9876 54.7259L35.9868 54.7273L36.4302 54.9585ZM35.4688 55.936L35.2275 55.4981L35.2259 55.499L35.4688 55.936ZM32.1548 55.5171L31.7937 55.863L31.795 55.8643L32.1548 55.5171ZM32.8906 54.9478L32.5139 55.2765L32.5155 55.2783L32.8906 54.9478ZM35.2915 54.9424L34.9148 54.6137L35.2915 54.9424ZM35.2861 51.6714L34.9094 52.0001L34.9128 52.004L35.2861 51.6714ZM31.9189 53.3042C31.9189 52.3381 32.1851 51.7177 32.6271 51.335L31.9725 50.579C31.24 51.2133 30.9189 52.1576 30.9189 53.3042H31.9189ZM32.6261 51.3359C33.0175 50.9987 33.4966 50.8232 34.0938 50.8232V49.8232C33.2801 49.8232 32.5632 50.0703 31.9735 50.5782L32.6261 51.3359ZM34.0938 50.8232C34.7564 50.8232 35.2628 51.0357 35.6569 51.4439L36.3763 50.7494C35.775 50.1265 34.9995 49.8232 34.0938 49.8232V50.8232ZM35.6581 51.4452C36.0424 51.8406 36.2632 52.4113 36.2632 53.2236H37.2632C37.2632 52.2241 36.9862 51.3769 36.3751 50.7482L35.6581 51.4452ZM36.2632 53.2236C36.2632 53.9163 36.157 54.4035 35.9876 54.7259L36.8728 55.1911C37.1474 54.6684 37.2632 53.9991 37.2632 53.2236H36.2632ZM35.9868 54.7273C35.8149 55.057 35.5657 55.3118 35.2275 55.4981L35.71 56.374C36.2169 56.0948 36.6086 55.6979 36.8735 55.1896L35.9868 54.7273ZM35.2259 55.499C34.8842 55.6888 34.5099 55.7852 34.0938 55.7852V56.7852C34.673 56.7852 35.2154 56.6487 35.7116 56.3731L35.2259 55.499ZM34.0938 55.7852C33.4127 55.7852 32.9025 55.5719 32.5146 55.1699L31.795 55.8643C32.3953 56.4864 33.1778 56.7852 34.0938 56.7852V55.7852ZM32.5158 55.1712C32.1424 54.7814 31.9189 54.1856 31.9189 53.3042H30.9189C30.9189 54.3492 31.186 55.2287 31.7937 55.863L32.5158 55.1712ZM31.9126 53.3042C31.9126 54.0963 32.0839 54.7837 32.5139 55.2765L33.2674 54.619C33.06 54.3813 32.9126 53.9731 32.9126 53.3042H31.9126ZM32.5155 55.2783C32.9294 55.748 33.4672 55.9902 34.0938 55.9902V54.9902C33.7535 54.9902 33.4892 54.8708 33.2658 54.6172L32.5155 55.2783ZM34.0938 55.9902C34.7197 55.9902 35.2557 55.7439 35.6682 55.2711L34.9148 54.6137C34.6899 54.8713 34.4275 54.9902 34.0938 54.9902V55.9902ZM35.6682 55.2711C36.0998 54.7765 36.2695 54.0782 36.2695 53.272H35.2695C35.2695 53.9624 35.1206 54.3778 34.9148 54.6137L35.6682 55.2711ZM36.2695 53.272C36.2695 52.4989 36.0937 51.8261 35.6594 51.3387L34.9128 52.004C35.1231 52.24 35.2695 52.6342 35.2695 53.272H36.2695ZM35.6629 51.3427C35.2512 50.8708 34.7173 50.6235 34.0938 50.6235V51.6235C34.4226 51.6235 34.6837 51.7415 34.9094 52.0001L35.6629 51.3427ZM34.0938 50.6235C33.4672 50.6235 32.9294 50.8657 32.5155 51.3355L33.2658 51.9966C33.4892 51.743 33.7535 51.6235 34.0938 51.6235V50.6235ZM32.5155 51.3355C32.0837 51.8255 31.9126 52.5126 31.9126 53.3042H32.9126C32.9126 52.6348 33.0602 52.2299 33.2658 51.9966L32.5155 51.3355ZM37.9019 56.1562H37.4019V56.6562H37.9019V56.1562ZM37.9019 50.4521V49.9521H37.4019V50.4521H37.9019ZM38.7666 50.4521H39.2666V49.9521H38.7666V50.4521ZM38.7666 51.2524H38.2666V52.9589L39.1875 51.5223L38.7666 51.2524ZM39.481 50.5811L39.7273 51.0162L39.7313 51.0139L39.481 50.5811ZM41.5327 50.5864L41.2592 51.005L41.2618 51.0067L41.5327 50.5864ZM42.1074 51.3223L41.6358 51.4884L41.9653 52.4236L42.5214 51.6027L42.1074 51.3223ZM45.1743 50.7959L44.8147 51.1433L44.8167 51.1453L45.1743 50.7959ZM45.6309 56.1562V56.6562H46.1309V56.1562H45.6309ZM44.6694 56.1562H44.1694V56.6562H44.6694V56.1562ZM44.5728 51.7305L44.1013 51.8974L44.1058 51.9093L44.5728 51.7305ZM42.6553 51.564L43.0088 51.9175L43.0112 51.9151L42.6553 51.564ZM42.2578 56.1562V56.6562H42.7578V56.1562H42.2578ZM41.291 56.1562H40.791V56.6562H41.291V56.1562ZM41.0547 51.4834L40.6515 51.7791L41.0547 51.4834ZM39.5239 51.376L39.2619 50.9501L39.2589 50.952L39.5239 51.376ZM38.8687 56.1562V56.6562H39.3687V56.1562H38.8687ZM38.4019 56.1562V50.4521H37.4019V56.1562H38.4019ZM37.9019 50.9521H38.7666V49.9521H37.9019V50.9521ZM38.2666 50.4521V51.2524H39.2666V50.4521H38.2666ZM39.1875 51.5223C39.3214 51.3135 39.4987 51.1456 39.7273 51.0161L39.2346 50.146C38.8688 50.3531 38.5699 50.6328 38.3457 50.9826L39.1875 51.5223ZM39.7313 51.0139C39.9446 50.8905 40.1949 50.8232 40.4961 50.8232V49.8232C40.0382 49.8232 39.6118 49.9278 39.2306 50.1482L39.7313 51.0139ZM40.4961 50.8232C40.8517 50.8232 41.0941 50.8971 41.2592 51.005L41.8062 50.1678C41.4342 49.9248 40.9855 49.8232 40.4961 49.8232V50.8232ZM41.2618 51.0067C41.4376 51.12 41.5604 51.2743 41.6358 51.4884L42.579 51.1561C42.4324 50.74 42.1721 50.4038 41.8037 50.1662L41.2618 51.0067ZM42.5214 51.6027C42.8918 51.0559 43.3324 50.8232 43.8691 50.8232V49.8232C42.9593 49.8232 42.2254 50.2566 41.6935 51.0418L42.5214 51.6027ZM43.8691 50.8232C44.3408 50.8232 44.6299 50.952 44.8147 51.1433L45.5339 50.4485C45.11 50.0096 44.529 49.8232 43.8691 49.8232V50.8232ZM44.8167 51.1453C44.9932 51.326 45.1309 51.6557 45.1309 52.2407H46.1309C46.1309 51.5223 45.9642 50.8889 45.532 50.4465L44.8167 51.1453ZM45.1309 52.2407V56.1562H46.1309V52.2407H45.1309ZM45.6309 55.6562H44.6694V56.6562H45.6309V55.6562ZM45.1694 56.1562V52.563H44.1694V56.1562H45.1694ZM45.1694 52.563C45.1694 52.169 45.1393 51.8118 45.0397 51.5516L44.1058 51.9093C44.1351 51.9857 44.1694 52.1835 44.1694 52.563H45.1694ZM45.0441 51.5635C44.943 51.2783 44.7539 51.0533 44.501 50.8939L43.9677 51.7399C44.0443 51.7881 44.0807 51.8389 44.1014 51.8974L45.0441 51.5635ZM44.501 50.8939C44.2457 50.733 43.9571 50.6611 43.6543 50.6611V51.6611C43.7955 51.6611 43.8936 51.6931 43.9677 51.7399L44.501 50.8939ZM43.6543 50.6611C43.1289 50.6611 42.6647 50.8425 42.2994 51.2128L43.0112 51.9151C43.1758 51.7483 43.3777 51.6611 43.6543 51.6611V50.6611ZM42.3017 51.2104C41.9016 51.6105 41.7578 52.1954 41.7578 52.8423H42.7578C42.7578 52.3147 42.879 52.0474 43.0088 51.9175L42.3017 51.2104ZM41.7578 52.8423V56.1562H42.7578V52.8423H41.7578ZM42.2578 55.6562H41.291V56.6562H42.2578V55.6562ZM41.791 56.1562V52.4502H40.791V56.1562H41.791ZM41.791 52.4502C41.791 51.9742 41.7064 51.5266 41.4579 51.1877L40.6515 51.7791C40.7181 51.8699 40.791 52.0669 40.791 52.4502H41.791ZM41.4579 51.1877C41.1758 50.803 40.7391 50.6611 40.2812 50.6611V51.6611C40.5395 51.6611 40.6185 51.7341 40.6515 51.7791L41.4579 51.1877ZM40.2812 50.6611C39.9162 50.6611 39.5731 50.7586 39.2619 50.9501L39.786 51.8018C39.9403 51.7069 40.1021 51.6611 40.2812 51.6611V50.6611ZM39.2589 50.952C38.9283 51.1586 38.6953 51.4597 38.5565 51.8282L39.4923 52.1806C39.5612 51.9977 39.6613 51.8798 39.7889 51.8L39.2589 50.952ZM38.5565 51.8282C38.4211 52.1876 38.3687 52.6561 38.3687 53.1968H39.3687C39.3687 52.6991 39.42 52.3726 39.4923 52.1806L38.5565 51.8282ZM38.3687 53.1968V56.1562H39.3687V53.1968H38.3687ZM38.8687 55.6562H37.9019V56.6562H38.8687V55.6562ZM47.0649 58.3423H46.5649V58.8423H47.0649V58.3423ZM47.0649 50.4521V49.9521H46.5649V50.4521H47.0649ZM47.9458 50.4521H48.4458V49.9521H47.9458V50.4521ZM47.9458 51.1934H47.4458V52.7505L48.3523 51.4845L47.9458 51.1934ZM48.6494 50.5435L48.8897 50.982L48.8943 50.9794L48.6494 50.5435ZM50.8892 50.6992L50.61 51.114L50.8892 50.6992ZM51.7324 51.7627L51.2705 51.954L51.271 51.9553L51.7324 51.7627ZM51.7002 54.8403L51.2443 54.635L51.2436 54.6366L51.7002 54.8403ZM50.7871 55.9146L51.0511 56.3392L51.0521 56.3385L50.7871 55.9146ZM48.6602 56.0811L48.4242 56.5219L48.4268 56.5232L48.6602 56.0811ZM48.0317 55.5654L48.4235 55.2547L47.5317 54.1304V55.5654H48.0317ZM48.0317 58.3423V58.8423H48.5317V58.3423H48.0317ZM50.5669 54.9478L50.1846 54.6255L50.1843 54.6258L50.5669 54.9478ZM50.5776 51.623L50.1913 51.9405L50.1932 51.9428L50.5776 51.623ZM48.4131 51.6606L48.0272 51.3427L48.0269 51.343L48.4131 51.6606ZM47.5649 58.3423V50.4521H46.5649V58.3423H47.5649ZM47.0649 50.9521H47.9458V49.9521H47.0649V50.9521ZM47.4458 50.4521V51.1934H48.4458V50.4521H47.4458ZM48.3523 51.4845C48.5248 51.2435 48.7058 51.0827 48.8897 50.9819L48.4091 50.105C48.0703 50.2906 47.7821 50.5631 47.5393 50.9023L48.3523 51.4845ZM48.8943 50.9794C49.0648 50.8836 49.2929 50.8232 49.6001 50.8232V49.8232C49.1625 49.8232 48.7568 49.9097 48.4046 50.1075L48.8943 50.9794ZM49.6001 50.8232C49.9964 50.8232 50.3271 50.9236 50.61 51.114L51.1683 50.2844C50.7064 49.9735 50.1777 49.8232 49.6001 49.8232V50.8232ZM50.61 51.114C50.8923 51.304 51.1142 51.5766 51.2705 51.954L52.1944 51.5714C51.9711 51.0322 51.6308 50.5957 51.1683 50.2844L50.61 51.114ZM51.271 51.9553C51.4328 52.3429 51.5171 52.7761 51.5171 53.2612H52.5171C52.5171 52.6578 52.4116 52.092 52.1939 51.5701L51.271 51.9553ZM51.5171 53.2612C51.5171 53.7836 51.4228 54.2386 51.2443 54.635L52.1561 55.0457C52.4001 54.5039 52.5171 53.9062 52.5171 53.2612H51.5171ZM51.2436 54.6366C51.0731 55.0187 50.8322 55.2968 50.5221 55.4906L51.0521 56.3385C51.5441 56.031 51.9119 55.593 52.1568 55.0441L51.2436 54.6366ZM50.5231 55.4899C50.1997 55.6909 49.8715 55.7852 49.5303 55.7852V56.7852C50.0699 56.7852 50.5796 56.6323 51.0511 56.3392L50.5231 55.4899ZM49.5303 55.7852C49.2806 55.7852 49.0721 55.7331 48.8935 55.6389L48.4268 56.5232C48.7639 56.7012 49.1354 56.7852 49.5303 56.7852V55.7852ZM48.8961 55.6402C48.6968 55.5336 48.5421 55.4043 48.4235 55.2547L47.64 55.8761C47.8508 56.1419 48.115 56.3564 48.4242 56.5219L48.8961 55.6402ZM47.5317 55.5654V58.3423H48.5317V55.5654H47.5317ZM48.0317 57.8423H47.0649V58.8423H48.0317V57.8423ZM47.4404 53.3364C47.4404 54.1224 47.5969 54.8056 48.0047 55.287L48.7678 54.6407C48.5811 54.4204 48.4404 54.0185 48.4404 53.3364H47.4404ZM48.0047 55.287C48.3874 55.7389 48.8822 55.9902 49.4658 55.9902V54.9902C49.2044 54.9902 48.9795 54.8907 48.7678 54.6407L48.0047 55.287ZM49.4658 55.9902C50.059 55.9902 50.5608 55.7315 50.9494 55.2697L50.1843 54.6258C49.9642 54.8873 49.7321 54.9902 49.4658 54.9902V55.9902ZM50.9492 55.2701C51.367 54.7745 51.5288 54.0703 51.5288 53.2559H50.5288C50.5288 53.9668 50.3827 54.3906 50.1846 54.6255L50.9492 55.2701ZM51.5288 53.2559C51.5288 52.4728 51.3688 51.7924 50.9621 51.3033L50.1932 51.9428C50.3881 52.177 50.5288 52.5852 50.5288 53.2559H51.5288ZM50.9639 51.3056C50.5854 50.8449 50.0939 50.5806 49.5088 50.5806V51.5806C49.7544 51.5806 49.9755 51.6779 50.1913 51.9405L50.9639 51.3056ZM49.5088 50.5806C48.9153 50.5806 48.4182 50.8682 48.0272 51.3427L48.7989 51.9786C49.0453 51.6796 49.2787 51.5806 49.5088 51.5806V50.5806ZM48.0269 51.343C47.6101 51.8498 47.4404 52.5402 47.4404 53.3364H48.4404C48.4404 52.6645 48.5859 52.2377 48.7993 51.9782L48.0269 51.343ZM57.0928 54.3193L57.1541 53.8231L56.7575 53.7741L56.6223 54.1501L57.0928 54.3193ZM58.0918 54.4429L58.5745 54.5732L58.7246 54.0173L58.1532 53.9467L58.0918 54.4429ZM53.5962 55.5171L53.2327 55.8604L53.2351 55.863L53.5962 55.5171ZM57.3989 51.1021L57.033 51.4428L57.3989 51.1021ZM58.1187 53.5513V54.0513H58.6033L58.6184 53.5669L58.1187 53.5513ZM53.8647 53.5513V53.0513H53.3354L53.3656 53.5798L53.8647 53.5513ZM53.9185 52.7563L53.4195 52.724L53.385 53.2563H53.9185V52.7563ZM57.1035 52.7563V53.2563H57.6503L57.6015 52.7118L57.1035 52.7563ZM56.7383 51.6768L56.353 51.9954L56.3546 51.9974L56.7383 51.6768ZM54.418 51.564L54.0686 51.2062L54.0665 51.2083L54.418 51.564ZM57.0314 54.8156L58.0304 54.9391L58.1532 53.9467L57.1541 53.8231L57.0314 54.8156ZM57.6091 54.3126C57.4764 54.8039 57.2408 55.1563 56.9147 55.403L57.5179 56.2005C58.044 55.8027 58.3921 55.2491 58.5745 54.5732L57.6091 54.3126ZM56.9147 55.403C56.5945 55.6451 56.1637 55.7852 55.5835 55.7852V56.7852C56.3282 56.7852 56.9859 56.6029 57.5179 56.2005L56.9147 55.403ZM55.5835 55.7852C54.8594 55.7852 54.3368 55.5674 53.9572 55.1712L53.2351 55.863C53.8367 56.4908 54.639 56.7852 55.5835 56.7852V55.7852ZM53.9597 55.1738C53.5847 54.7767 53.3657 54.1928 53.3657 53.3525H52.3657C52.3657 54.3671 52.6337 55.2262 53.2327 55.8604L53.9597 55.1738ZM53.3657 53.3525C53.3657 52.4774 53.5897 51.8698 53.9726 51.4591L53.2412 50.7772C52.6358 51.4265 52.3657 52.3084 52.3657 53.3525H53.3657ZM53.9726 51.4591C54.3634 51.0401 54.8672 50.8232 55.5298 50.8232V49.8232C54.6168 49.8232 53.8388 50.1364 53.2412 50.7772L53.9726 51.4591ZM55.5298 50.8232C56.1653 50.8232 56.6518 51.0334 57.033 51.4428L57.7649 50.7613C57.1792 50.1323 56.4196 49.8232 55.5298 49.8232V50.8232ZM57.033 51.4428C57.4051 51.8425 57.624 52.4358 57.624 53.2935H58.624C58.624 52.2677 58.3595 51.4 57.7649 50.7613L57.033 51.4428ZM57.624 53.2935C57.624 53.3426 57.6224 53.4222 57.6189 53.5357L58.6184 53.5669C58.622 53.4512 58.624 53.3589 58.624 53.2935H57.624ZM58.1187 53.0513H53.8647V54.0513H58.1187V53.0513ZM53.3656 53.5798C53.4057 54.2821 53.6087 54.8907 54.0352 55.3364L54.7577 54.645C54.5469 54.4247 54.3954 54.0736 54.3639 53.5227L53.3656 53.5798ZM54.0352 55.3364C54.4517 55.7716 54.9813 55.9902 55.5889 55.9902V54.9902C55.2439 54.9902 54.9786 54.8758 54.7577 54.645L54.0352 55.3364ZM55.5889 55.9902C56.0356 55.9902 56.4464 55.871 56.7947 55.6123L56.1984 54.8096C56.0454 54.9232 55.8511 54.9902 55.5889 54.9902V55.9902ZM56.7947 55.6123C57.1497 55.3486 57.3957 54.9546 57.5633 54.4885L56.6223 54.1501C56.4963 54.5005 56.3448 54.7008 56.1984 54.8096L56.7947 55.6123ZM53.9185 53.2563H57.1035V52.2563H53.9185V53.2563ZM57.6015 52.7118C57.554 52.1816 57.4144 51.7061 57.1219 51.3561L56.3546 51.9974C56.4632 52.1273 56.567 52.3715 56.6055 52.8009L57.6015 52.7118ZM57.1236 51.3581C56.719 50.8689 56.1775 50.6182 55.5405 50.6182V51.6182C55.8847 51.6182 56.1417 51.7399 56.353 51.9954L57.1236 51.3581ZM55.5405 50.6182C54.9723 50.6182 54.4709 50.8135 54.0686 51.2062L54.7673 51.9217C54.9738 51.72 55.2207 51.6182 55.5405 51.6182V50.6182ZM54.0665 51.2083C53.6634 51.6066 53.4581 52.1273 53.4195 52.724L54.4174 52.7887C54.4432 52.3899 54.571 52.1157 54.7694 51.9196L54.0665 51.2083ZM61.4219 55.2915L61.9153 55.2108L61.8362 54.7272L61.3512 54.7965L61.4219 55.2915ZM61.5615 56.1455L61.6645 56.6348L62.1321 56.5364L62.055 56.0648L61.5615 56.1455ZM59.6064 55.6299L59.1473 55.8279L59.1488 55.8313L59.6064 55.6299ZM59.4883 51.2041H59.9883V50.7041H59.4883V51.2041ZM58.7793 51.2041H58.2793V51.7041H58.7793V51.2041ZM58.7793 50.4521V49.9521H58.2793V50.4521H58.7793ZM59.4883 50.4521V50.9521H59.9883V50.4521H59.4883ZM59.4883 49.0396L59.23 48.6114L58.9883 48.7573V49.0396H59.4883ZM60.4497 48.4595H60.9497V47.5738L60.1914 48.0314L60.4497 48.4595ZM60.4497 50.4521H59.9497V50.9521H60.4497V50.4521ZM61.4219 50.4521H61.9219V49.9521H61.4219V50.4521ZM61.4219 51.2041V51.7041H61.9219V51.2041H61.4219ZM60.4497 51.2041V50.7041H59.9497V51.2041H60.4497ZM60.498 55.0713L60.0353 55.2606L60.0389 55.2695L60.0429 55.2782L60.498 55.0713ZM60.6646 55.2593L60.4013 55.6845L60.4102 55.6897L60.6646 55.2593ZM60.9284 55.3722L61.0681 56.2262L62.055 56.0648L61.9153 55.2108L60.9284 55.3722ZM61.4585 55.6562C61.2109 55.7084 61.0029 55.7314 60.8311 55.7314V56.7314C61.0889 56.7314 61.3678 56.6972 61.6645 56.6348L61.4585 55.6562ZM60.8311 55.7314C60.522 55.7314 60.3496 55.6807 60.2636 55.6313L59.7657 56.4986C60.0664 56.6712 60.4383 56.7314 60.8311 56.7314V55.7314ZM60.2636 55.6313C60.1493 55.5657 60.094 55.4965 60.0641 55.4285L59.1488 55.8313C59.2764 56.1214 59.4933 56.3422 59.7657 56.4986L60.2636 55.6313ZM60.0656 55.4318C60.0572 55.4125 60.0335 55.3334 60.0152 55.1555C59.9979 54.9882 59.9883 54.7665 59.9883 54.4858H58.9883C58.9883 54.7853 58.9984 55.0443 59.0205 55.2583C59.0415 55.4618 59.0769 55.6647 59.1473 55.8279L60.0656 55.4318ZM59.9883 54.4858V51.2041H58.9883V54.4858H59.9883ZM59.4883 50.7041H58.7793V51.7041H59.4883V50.7041ZM59.2793 51.2041V50.4521H58.2793V51.2041H59.2793ZM58.7793 50.9521H59.4883V49.9521H58.7793V50.9521ZM59.9883 50.4521V49.0396H58.9883V50.4521H59.9883ZM59.7466 49.4677L60.708 48.8876L60.1914 48.0314L59.23 48.6114L59.7466 49.4677ZM59.9497 48.4595V50.4521H60.9497V48.4595H59.9497ZM60.4497 50.9521H61.4219V49.9521H60.4497V50.9521ZM60.9219 50.4521V51.2041H61.9219V50.4521H60.9219ZM61.4219 50.7041H60.4497V51.7041H61.4219V50.7041ZM59.9497 51.2041V54.5396H60.9497V51.2041H59.9497ZM59.9497 54.5396C59.9497 54.6853 59.9539 54.8151 59.9638 54.9245C59.9726 55.0209 59.9892 55.1481 60.0353 55.2606L60.9608 54.882C60.9703 54.9052 60.9709 54.9153 60.9682 54.901C60.966 54.8892 60.9628 54.8677 60.9597 54.834C60.9536 54.7662 60.9497 54.6695 60.9497 54.5396H59.9497ZM60.0429 55.2782C60.1206 55.4492 60.2439 55.587 60.4014 55.6844L60.9277 54.8341C60.9292 54.835 60.9345 54.8387 60.9408 54.8459C60.9472 54.853 60.9512 54.86 60.9532 54.8644L60.0429 55.2782ZM60.4102 55.6897C60.5978 55.8006 60.811 55.8291 60.9976 55.8291V54.8291C60.9519 54.8291 60.9238 54.8253 60.9095 54.8223C60.8952 54.8193 60.9016 54.8186 60.9189 54.8288L60.4102 55.6897ZM60.9976 55.8291C61.1389 55.8291 61.3067 55.813 61.4926 55.7865L61.3512 54.7965C61.1862 54.8201 61.0711 54.8291 60.9976 54.8291V55.8291ZM66.2773 54.3193L66.3387 53.8231L65.9421 53.7741L65.8068 54.1501L66.2773 54.3193ZM67.2764 54.4429L67.7591 54.5732L67.9091 54.0173L67.3377 53.9467L67.2764 54.4429ZM62.7808 55.5171L62.4172 55.8604L62.4197 55.863L62.7808 55.5171ZM66.5835 51.1021L66.2175 51.4428L66.5835 51.1021ZM67.3032 53.5513V54.0513H67.7878L67.803 53.5669L67.3032 53.5513ZM63.0493 53.5513V53.0513H62.5199L62.5501 53.5798L63.0493 53.5513ZM63.103 52.7563L62.6041 52.724L62.5696 53.2563H63.103V52.7563ZM66.2881 52.7563V53.2563H66.8349L66.7861 52.7118L66.2881 52.7563ZM65.9229 51.6768L65.5375 51.9954L65.5392 51.9974L65.9229 51.6768ZM63.6025 51.564L63.2532 51.2062L63.2511 51.2083L63.6025 51.564ZM66.216 54.8156L67.215 54.9391L67.3377 53.9467L66.3387 53.8231L66.216 54.8156ZM66.7936 54.3126C66.661 54.8039 66.4254 55.1563 66.0993 55.403L66.7025 56.2005C67.2286 55.8027 67.5766 55.2491 67.7591 54.5732L66.7936 54.3126ZM66.0993 55.403C65.7791 55.6451 65.3482 55.7852 64.7681 55.7852V56.7852C65.5128 56.7852 66.1705 56.6029 66.7025 56.2005L66.0993 55.403ZM64.7681 55.7852C64.044 55.7852 63.5214 55.5674 63.1418 55.1712L62.4197 55.863C63.0212 56.4908 63.8235 56.7852 64.7681 56.7852V55.7852ZM63.1443 55.1738C62.7693 54.7767 62.5503 54.1928 62.5503 53.3525H61.5503C61.5503 54.3671 61.8183 55.2262 62.4173 55.8604L63.1443 55.1738ZM62.5503 53.3525C62.5503 52.4774 62.7743 51.8698 63.1572 51.4591L62.4258 50.7772C61.8204 51.4265 61.5503 52.3084 61.5503 53.3525H62.5503ZM63.1572 51.4591C63.548 51.0401 64.0518 50.8232 64.7144 50.8232V49.8232C63.8014 49.8232 63.0233 50.1364 62.4258 50.7772L63.1572 51.4591ZM64.7144 50.8232C65.3499 50.8232 65.8364 51.0334 66.2175 51.4428L66.9494 50.7613C66.3638 50.1323 65.6042 49.8232 64.7144 49.8232V50.8232ZM66.2175 51.4428C66.5897 51.8425 66.8086 52.4358 66.8086 53.2935H67.8086C67.8086 52.2677 67.5441 51.4 66.9494 50.7613L66.2175 51.4428ZM66.8086 53.2935C66.8086 53.3426 66.807 53.4222 66.8035 53.5357L67.803 53.5669C67.8066 53.4512 67.8086 53.3589 67.8086 53.2935H66.8086ZM67.3032 53.0513H63.0493V54.0513H67.3032V53.0513ZM62.5501 53.5798C62.5903 54.2821 62.7933 54.8907 63.2198 55.3364L63.9423 54.645C63.7314 54.4247 63.58 54.0736 63.5485 53.5227L62.5501 53.5798ZM63.2198 55.3364C63.6363 55.7716 64.1659 55.9902 64.7734 55.9902V54.9902C64.4285 54.9902 64.1632 54.8758 63.9423 54.645L63.2198 55.3364ZM64.7734 55.9902C65.2201 55.9902 65.631 55.871 65.9793 55.6123L65.383 54.8096C65.23 54.9232 65.0357 54.9902 64.7734 54.9902V55.9902ZM65.9793 55.6123C66.3343 55.3486 66.5802 54.9546 66.7478 54.4885L65.8068 54.1501C65.6808 54.5005 65.5293 54.7008 65.383 54.8096L65.9793 55.6123ZM63.103 53.2563H66.2881V52.2563H63.103V53.2563ZM66.7861 52.7118C66.7386 52.1816 66.599 51.7061 66.3065 51.3561L65.5392 51.9974C65.6477 52.1273 65.7516 52.3715 65.7901 52.8009L66.7861 52.7118ZM66.3082 51.3581C65.9036 50.8689 65.3621 50.6182 64.7251 50.6182V51.6182C65.0692 51.6182 65.3262 51.7399 65.5375 51.9954L66.3082 51.3581ZM64.7251 50.6182C64.1569 50.6182 63.6554 50.8135 63.2532 51.2062L63.9519 51.9217C64.1584 51.72 64.4053 51.6182 64.7251 51.6182V50.6182ZM63.2511 51.2083C62.848 51.6066 62.6427 52.1273 62.6041 52.724L63.602 52.7887C63.6278 52.3899 63.7555 52.1157 63.954 51.9196L63.2511 51.2083Z" fill="white"/>
<path d="M44.1377 30.2646L42.2148 30.415C42.043 29.6559 41.7995 29.1045 41.4844 28.7607C40.9616 28.2093 40.3171 27.9336 39.5508 27.9336C38.9349 27.9336 38.3942 28.1055 37.9287 28.4492C37.32 28.8932 36.8402 29.5413 36.4893 30.3936C36.1383 31.2458 35.9557 32.4596 35.9414 34.0352C36.4069 33.3262 36.9762 32.7998 37.6494 32.4561C38.3226 32.1123 39.028 31.9404 39.7656 31.9404C41.0547 31.9404 42.1504 32.4167 43.0527 33.3691C43.9622 34.3145 44.417 35.5391 44.417 37.043C44.417 38.0312 44.2021 38.9515 43.7725 39.8037C43.3499 40.6488 42.7663 41.2969 42.0215 41.748C41.2767 42.1992 40.4316 42.4248 39.4863 42.4248C37.875 42.4248 36.5609 41.834 35.5439 40.6523C34.527 39.4635 34.0186 37.5085 34.0186 34.7871C34.0186 31.7435 34.5807 29.5306 35.7051 28.1484C36.6862 26.9453 38.0075 26.3438 39.6689 26.3438C40.9079 26.3438 41.9212 26.6911 42.709 27.3857C43.5039 28.0804 43.9801 29.04 44.1377 30.2646ZM36.2422 37.0537C36.2422 37.7197 36.3818 38.3571 36.6611 38.9658C36.9476 39.5745 37.3451 40.04 37.8535 40.3623C38.362 40.6774 38.8955 40.835 39.4541 40.835C40.2705 40.835 40.9723 40.5055 41.5596 39.8467C42.1468 39.1878 42.4404 38.2926 42.4404 37.1611C42.4404 36.0726 42.1504 35.2168 41.5703 34.5938C40.9902 33.9635 40.2598 33.6484 39.3789 33.6484C38.5052 33.6484 37.764 33.9635 37.1553 34.5938C36.5465 35.2168 36.2422 36.0368 36.2422 37.0537ZM56.5127 40.2979V42.1562H46.1035C46.0892 41.6908 46.1644 41.2432 46.3291 40.8135C46.5941 40.1045 47.0166 39.4062 47.5967 38.7188C48.1839 38.0312 49.029 37.2363 50.1318 36.334C51.8434 34.9303 53 33.8203 53.6016 33.0039C54.2031 32.1803 54.5039 31.4033 54.5039 30.6729C54.5039 29.9066 54.2282 29.262 53.6768 28.7393C53.1325 28.2093 52.4199 27.9443 51.5391 27.9443C50.6081 27.9443 49.8633 28.2236 49.3047 28.7822C48.7461 29.3408 48.4632 30.1143 48.4561 31.1025L46.4688 30.8984C46.6048 29.416 47.1169 28.2881 48.0049 27.5146C48.8929 26.734 50.0853 26.3438 51.582 26.3438C53.0931 26.3438 54.2891 26.7627 55.1699 27.6006C56.0508 28.4385 56.4912 29.4769 56.4912 30.7158C56.4912 31.346 56.3623 31.9655 56.1045 32.5742C55.8467 33.1829 55.417 33.8239 54.8154 34.4971C54.221 35.1702 53.2292 36.0941 51.8398 37.2686C50.6797 38.2425 49.9349 38.9049 49.6055 39.2559C49.276 39.5996 49.0039 39.9469 48.7891 40.2979H56.5127Z" fill="#828690"/>
<path d="M44.1377 30.2646L44.1767 30.7631L44.7007 30.7221L44.6336 30.2008L44.1377 30.2646ZM42.2148 30.415L41.7272 30.5255L41.8227 30.9472L42.2538 30.9135L42.2148 30.415ZM41.4844 28.7607L41.853 28.4228L41.8472 28.4167L41.4844 28.7607ZM37.9287 28.4492L38.2234 28.8532L38.2257 28.8514L37.9287 28.4492ZM36.4893 30.3936L36.0269 30.2032L36.4893 30.3936ZM35.9414 34.0352L35.4414 34.0306L35.426 35.7312L36.3594 34.3096L35.9414 34.0352ZM37.6494 32.4561L37.422 32.0108L37.6494 32.4561ZM43.0527 33.3691L42.6897 33.713L42.6924 33.7158L43.0527 33.3691ZM43.7725 39.8037L43.326 39.5786L43.3252 39.5801L43.7725 39.8037ZM35.5439 40.6523L35.164 40.9774L35.165 40.9785L35.5439 40.6523ZM35.7051 28.1484L35.3176 27.8324L35.3172 27.8329L35.7051 28.1484ZM42.709 27.3857L42.3783 27.7608L42.38 27.7622L42.709 27.3857ZM36.6611 38.9658L36.2067 39.1743L36.2087 39.1787L36.6611 38.9658ZM37.8535 40.3623L37.5858 40.7846L37.5901 40.7873L37.8535 40.3623ZM41.5596 39.8467L41.9328 40.1794L41.5596 39.8467ZM41.5703 34.5938L41.2024 34.9324L41.2044 34.9345L41.5703 34.5938ZM37.1553 34.5938L37.5129 34.9432L37.5149 34.9411L37.1553 34.5938ZM44.0987 29.7662L42.1759 29.9166L42.2538 30.9135L44.1767 30.7631L44.0987 29.7662ZM42.7025 30.3046C42.5228 29.5109 42.254 28.8603 41.853 28.4229L41.1158 29.0986C41.345 29.3486 41.5631 29.8009 41.7272 30.5255L42.7025 30.3046ZM41.8472 28.4167C41.2291 27.7648 40.453 27.4336 39.5508 27.4336V28.4336C40.1811 28.4336 40.6941 28.6539 41.1215 29.1047L41.8472 28.4167ZM39.5508 27.4336C38.8353 27.4336 38.1889 27.6355 37.6317 28.047L38.2257 28.8514C38.5995 28.5754 39.0345 28.4336 39.5508 28.4336V27.4336ZM37.6341 28.0453C36.9358 28.5546 36.4051 29.2847 36.0269 30.2032L36.9516 30.5839C37.2752 29.798 37.7042 29.2318 38.2234 28.8532L37.6341 28.0453ZM36.0269 30.2032C35.6404 31.1419 35.456 32.4301 35.4414 34.0306L36.4414 34.0397C36.4555 32.4892 36.6363 31.3496 36.9516 30.5839L36.0269 30.2032ZM36.3594 34.3096C36.7832 33.6641 37.29 33.201 37.8768 32.9014L37.422 32.0108C36.6625 32.3986 36.0306 32.9883 35.5234 33.7607L36.3594 34.3096ZM37.8768 32.9014C38.4814 32.5926 39.1091 32.4404 39.7656 32.4404V31.4404C38.9469 31.4404 38.1638 31.632 37.422 32.0108L37.8768 32.9014ZM39.7656 32.4404C40.9146 32.4404 41.8799 32.8582 42.6898 33.713L43.4157 33.0253C42.4208 31.9751 41.1947 31.4404 39.7656 31.4404V32.4404ZM42.6924 33.7158C43.4991 34.5542 43.917 35.6479 43.917 37.043H44.917C44.917 35.4302 44.4254 34.0747 43.413 33.0225L42.6924 33.7158ZM43.917 37.043C43.917 37.9559 43.7192 38.7987 43.326 39.5786L44.2189 40.0288C44.6851 39.1043 44.917 38.1066 44.917 37.043H43.917ZM43.3252 39.5801C42.9412 40.3482 42.4197 40.9223 41.7624 41.3204L42.2805 42.1757C43.1129 41.6715 43.7587 40.9493 44.2197 40.0273L43.3252 39.5801ZM41.7624 41.3204C41.1024 41.7202 40.3484 41.9248 39.4863 41.9248V42.9248C40.5149 42.9248 41.451 42.6782 42.2805 42.1757L41.7624 41.3204ZM39.4863 41.9248C38.015 41.9248 36.8413 41.3933 35.9229 40.3262L35.165 40.9785C36.2805 42.2747 37.735 42.9248 39.4863 42.9248V41.9248ZM35.9239 40.3273C35.0241 39.2755 34.5186 37.4693 34.5186 34.7871H33.5186C33.5186 37.5476 34.0299 39.6516 35.164 40.9774L35.9239 40.3273ZM34.5186 34.7871C34.5186 31.7844 35.0771 29.7128 36.093 28.464L35.3172 27.8329C34.0844 29.3484 33.5186 31.7026 33.5186 34.7871H34.5186ZM36.0926 28.4644C36.9714 27.3868 38.1457 26.8438 39.6689 26.8438V25.8438C37.8693 25.8438 36.401 26.5038 35.3176 27.8324L36.0926 28.4644ZM39.6689 26.8438C40.8092 26.8438 41.6978 27.1607 42.3783 27.7608L43.0397 27.0107C42.1446 26.2215 41.0066 25.8438 39.6689 25.8438V26.8438ZM42.38 27.7622C43.0677 28.3632 43.497 29.2032 43.6418 30.3285L44.6336 30.2008C44.4633 28.8769 43.9401 27.7976 43.038 27.0092L42.38 27.7622ZM35.7422 37.0537C35.7422 37.7921 35.8975 38.5006 36.2067 39.1743L37.1156 38.7573C36.8661 38.2136 36.7422 37.6473 36.7422 37.0537H35.7422ZM36.2087 39.1787C36.5307 39.863 36.988 40.4057 37.5858 40.7846L38.1212 39.94C37.7021 39.6744 37.3645 39.2861 37.1135 38.7529L36.2087 39.1787ZM37.5901 40.7873C38.1719 41.1478 38.7958 41.335 39.4541 41.335V40.335C38.9952 40.335 38.5521 40.207 38.1169 39.9373L37.5901 40.7873ZM39.4541 41.335C40.4256 41.335 41.2594 40.935 41.9328 40.1794L41.1863 39.514C40.6853 40.0761 40.1154 40.335 39.4541 40.335V41.335ZM41.9328 40.1794C42.6226 39.4054 42.9404 38.3797 42.9404 37.1611H41.9404C41.9404 38.2056 41.671 38.9702 41.1863 39.514L41.9328 40.1794ZM42.9404 37.1611C42.9404 35.9827 42.6245 34.9923 41.9363 34.253L41.2044 34.9345C41.6763 35.4413 41.9404 36.1625 41.9404 37.1611H42.9404ZM41.9382 34.2551C41.2604 33.5188 40.3951 33.1484 39.3789 33.1484V34.1484C40.1245 34.1484 40.72 34.4083 41.2024 34.9324L41.9382 34.2551ZM39.3789 33.1484C38.3692 33.1484 37.4983 33.5189 36.7956 34.2464L37.5149 34.9411C38.0297 34.4081 38.6413 34.1484 39.3789 34.1484V33.1484ZM36.7976 34.2443C36.0824 34.9764 35.7422 35.9297 35.7422 37.0537H36.7422C36.7422 36.1439 37.0107 35.4572 37.5129 34.9432L36.7976 34.2443ZM56.5127 40.2979H57.0127V39.7979H56.5127V40.2979ZM56.5127 42.1562V42.6562H57.0127V42.1562H56.5127ZM46.1035 42.1562L45.6038 42.1716L45.6187 42.6562H46.1035V42.1562ZM46.3291 40.8135L46.796 40.9925L46.7975 40.9885L46.3291 40.8135ZM47.5967 38.7188L47.2165 38.394L47.2145 38.3963L47.5967 38.7188ZM50.1318 36.334L50.4485 36.721L50.4489 36.7206L50.1318 36.334ZM53.6016 33.0039L54.0041 33.3005L54.0053 33.2988L53.6016 33.0039ZM53.6768 28.7393L53.3279 29.0975L53.3328 29.1021L53.6768 28.7393ZM48.4561 31.1025L48.405 31.5999L48.9521 31.6561L48.956 31.1062L48.4561 31.1025ZM46.4688 30.8984L45.9708 30.8527L45.9256 31.3453L46.4177 31.3958L46.4688 30.8984ZM48.0049 27.5146L48.3333 27.8917L48.335 27.8902L48.0049 27.5146ZM54.8154 34.4971L54.4426 34.1639L54.4406 34.1661L54.8154 34.4971ZM51.8398 37.2686L52.1613 37.6515L52.1626 37.6504L51.8398 37.2686ZM49.6055 39.2559L49.9665 39.6018L49.97 39.5981L49.6055 39.2559ZM48.7891 40.2979L48.3626 40.0368L47.8967 40.7979H48.7891V40.2979ZM56.0127 40.2979V42.1562H57.0127V40.2979H56.0127ZM56.5127 41.6562H46.1035V42.6562H56.5127V41.6562ZM46.6033 42.1409C46.591 41.7409 46.6553 41.3594 46.796 40.9924L45.8622 40.6345C45.6735 41.1269 45.5874 41.6406 45.6038 42.1716L46.6033 42.1409ZM46.7975 40.9885C47.039 40.3423 47.4289 39.6929 47.9788 39.0412L47.2145 38.3963C46.6043 39.1196 46.1492 39.8667 45.8607 40.6384L46.7975 40.9885ZM47.9769 39.0435C48.5371 38.3876 49.3571 37.6139 50.4485 36.721L49.8152 35.947C48.7009 36.8588 47.8307 37.6749 47.2165 38.394L47.9769 39.0435ZM50.4489 36.7206C52.164 35.3141 53.3628 34.1708 54.0041 33.3005L53.199 32.7073C52.6372 33.4698 51.5229 34.5466 49.8148 35.9474L50.4489 36.7206ZM54.0053 33.2988C54.6453 32.4227 55.0039 31.544 55.0039 30.6729H54.0039C54.0039 31.2626 53.761 31.938 53.1978 32.709L54.0053 33.2988ZM55.0039 30.6729C55.0039 29.7707 54.6727 28.9945 54.0208 28.3764L53.3328 29.1021C53.7836 29.5296 54.0039 30.0425 54.0039 30.6729H55.0039ZM54.0256 28.381C53.373 27.7457 52.5278 27.4443 51.5391 27.4443V28.4443C52.312 28.4443 52.8919 28.673 53.3279 29.0975L54.0256 28.381ZM51.5391 27.4443C50.5009 27.4443 49.6201 27.7597 48.9511 28.4287L49.6582 29.1358C50.1065 28.6876 50.7152 28.4443 51.5391 28.4443V27.4443ZM48.9511 28.4287C48.2777 29.1021 47.9639 30.014 47.9561 31.0989L48.956 31.1062C48.9625 30.2145 49.2145 29.5795 49.6582 29.1358L48.9511 28.4287ZM48.5071 30.6052L46.5198 30.4011L46.4177 31.3958L48.405 31.5999L48.5071 30.6052ZM46.9667 30.9441C47.0942 29.5545 47.5661 28.5599 48.3333 27.8917L47.6765 27.1376C46.6676 28.0163 46.1154 29.2775 45.9708 30.8527L46.9667 30.9441ZM48.335 27.8902C49.1095 27.2094 50.1734 26.8438 51.582 26.8438V25.8438C49.9971 25.8438 48.6763 26.2587 47.6748 27.1391L48.335 27.8902ZM51.582 26.8438C52.9975 26.8438 54.0587 27.2336 54.8253 27.9629L55.5145 27.2383C54.5194 26.2918 53.1887 25.8438 51.582 25.8438V26.8438ZM54.8253 27.9629C55.6048 28.7044 55.9912 29.6109 55.9912 30.7158H56.9912C56.9912 29.3429 56.4967 28.1726 55.5145 27.2383L54.8253 27.9629ZM55.9912 30.7158C55.9912 31.2758 55.8771 31.8291 55.6441 32.3792L56.5649 32.7692C56.8475 32.1019 56.9912 31.4163 56.9912 30.7158H55.9912ZM55.6441 32.3792C55.4139 32.9227 55.02 33.5178 54.4426 34.1639L55.1883 34.8302C55.814 34.13 56.2794 33.4432 56.5649 32.7692L55.6441 32.3792ZM54.4406 34.1661C53.8714 34.8108 52.9026 35.7154 51.517 36.8867L52.1626 37.6504C53.5557 36.4727 54.5707 35.5297 55.1902 34.828L54.4406 34.1661ZM51.5184 36.8856C50.3628 37.8557 49.5943 38.5372 49.2409 38.9136L49.97 39.5981C50.2755 39.2727 50.9965 38.6294 52.1613 37.6515L51.5184 36.8856ZM49.2445 38.9099C48.894 39.2756 48.5988 39.651 48.3626 40.0368L49.2155 40.5589C49.409 40.2429 49.658 39.9236 49.9665 39.6018L49.2445 38.9099ZM48.7891 40.7979H56.5127V39.7979H48.7891V40.7979Z" fill="white"/>
</svg>
