<svg width="20" height="21" viewBox="0 0 20 21" fill="none" xmlns="http://www.w3.org/2000/svg">
<path fill-rule="evenodd" clip-rule="evenodd" d="M18.3692 6.01423L17.7467 4.93414C17.2202 4.02022 16.0532 3.70494 15.138 4.22934C14.7024 4.48596 14.1826 4.55877 13.6932 4.43171C13.2038 4.30464 12.7851 3.98814 12.5293 3.55199C12.3648 3.27477 12.2764 2.95901 12.273 2.63666C12.2879 2.11984 12.0929 1.61902 11.7325 1.24829C11.3721 0.877561 10.877 0.668481 10.36 0.668701H9.106C8.5995 0.668691 8.1138 0.870531 7.7565 1.22956C7.39919 1.5886 7.19967 2.07521 7.20211 2.58174C7.1871 3.62754 6.33498 4.46743 5.28907 4.46732C4.96671 4.46397 4.65096 4.37556 4.37373 4.21103C3.45856 3.68663 2.29161 4.00191 1.76504 4.91584L1.09685 6.01423C0.570909 6.92701 0.881899 8.09323 1.7925 8.62295C2.3844 8.96465 2.74903 9.59625 2.74903 10.2797C2.74903 10.9632 2.3844 11.5947 1.7925 11.9365C0.883059 12.4626 0.571729 13.626 1.09685 14.536L1.72843 15.6253C1.97515 16.0705 2.3891 16.399 2.87869 16.5381C3.36828 16.6773 3.89314 16.6156 4.33712 16.3667C4.77358 16.112 5.29369 16.0422 5.78184 16.1729C6.26999 16.3035 6.68574 16.6237 6.93666 17.0623C7.1012 17.3396 7.18961 17.6553 7.19296 17.9777C7.19296 19.0342 8.0495 19.8907 9.106 19.8907H10.36C11.413 19.8907 12.268 19.0398 12.273 17.9868C12.2706 17.4787 12.4714 16.9907 12.8307 16.6314C13.19 16.2721 13.678 16.0713 14.1861 16.0738C14.5077 16.0824 14.8221 16.1704 15.1014 16.3301C16.0142 16.856 17.1804 16.545 17.7101 15.6344L18.3692 14.536C18.6243 14.0982 18.6943 13.5767 18.5637 13.087C18.4331 12.5974 18.1127 12.18 17.6735 11.9273C17.2343 11.6746 16.9139 11.2572 16.7833 10.7676C16.6527 10.278 16.7228 9.75645 16.9779 9.31855C17.1437 9.02895 17.3839 8.78885 17.6735 8.62295C18.5786 8.09351 18.8889 6.93411 18.3692 6.02339V6.01423Z" stroke="white" stroke-linecap="round" stroke-linejoin="round"/>
</svg>
